<svg width="20" height="18" viewBox="0 0 20 18" fill="none" xmlns="http://www.w3.org/2000/svg">
<path fill-rule="evenodd" clip-rule="evenodd" d="M2.48438 12.25L5.0773 11.96C5.70001 11.89 6.31251 12.1 6.75147 12.53L8.6298 14.37C11.5188 12.93 13.8871 10.62 15.3571 7.78L13.4686 5.93C13.0296 5.5 12.8152 4.9 12.8867 4.29L13.1827 1.77C13.3052 0.76 14.1729 0 15.2142 0H16.9802C18.1338 0 19.0933 0.94 19.0219 2.07C18.4808 10.61 11.5086 17.43 2.80084 17.96C1.6473 18.03 0.687721 17.09 0.687721 15.96V14.23C0.677511 13.22 1.45334 12.37 2.48438 12.25Z" fill="white"/>
</svg>
