<svg width="22" height="20" viewBox="0 0 22 20" fill="none" xmlns="http://www.w3.org/2000/svg">
<path d="M9.13837 13.4583L9.55566 13.0494L7.80303 11.3322L7.38573 11.7411L7.17709 11.5367C6.84325 11.1687 6.50942 10.9643 6.17558 11.0052C5.92521 11.0052 5.71656 11.1687 5.54965 11.414C5.29927 11.8229 5.42446 12.2726 5.46619 12.5588C5.46619 12.6406 5.50792 12.6815 5.50792 12.7632C5.50792 12.8859 5.50792 13.0494 5.21581 13.0903C4.79852 13.213 4.25604 13.3356 3.71356 13.6218C2.96243 14.0307 2.46168 14.3987 2.16957 14.7666C0.625588 16.7291 0.709046 18.4055 0.709046 18.4872C0.709046 18.6099 0.750776 18.6917 0.834234 18.7325L1.96093 19.8773C2.04438 19.9591 2.12784 20 2.2113 20C2.2113 20 2.25303 20 2.33649 20C2.75378 20 4.25604 19.9182 6.00867 18.569C6.38423 18.2828 6.7598 17.7922 7.17709 17.0562C7.46919 16.5656 7.63611 16.0341 7.71957 15.5844C7.80303 15.2982 7.92822 15.2982 8.0534 15.2982C8.09513 15.2982 8.17859 15.339 8.26205 15.339C8.42897 15.3799 8.59588 15.4208 8.80453 15.4208C9.01318 15.4208 9.22182 15.3799 9.43047 15.2573C9.68085 15.0937 9.84776 14.8893 9.88949 14.644C9.93122 14.3169 9.76431 13.9898 9.38874 13.7036L9.13837 13.4583Z" fill="white"/>
<path d="M17.9441 4.87841L19.1026 4.32603C19.1455 4.28354 19.2313 4.24105 19.2742 4.19856L21.0333 1.86157C21.162 1.69161 21.162 1.43667 20.9903 1.3092L19.789 0.119458C19.6603 -0.00801422 19.4029 -0.0505049 19.2313 0.076967L16.8715 1.81908C16.8286 1.86157 16.7857 1.90406 16.7428 1.98905L16.185 3.13629L11.9375 7.21539L13.7395 9L17.9441 4.87841Z" fill="white"/>
<path d="M18.9328 13.0448C17.9231 12.0036 16.4692 11.6288 15.096 12.0036L8.51279 5.17331C8.59357 4.79848 8.63396 4.46529 8.63396 4.09046C8.63396 3.04926 8.23008 2.00806 7.46271 1.21675C6.41263 0.0922529 4.83751 -0.282579 3.38355 0.217197C3.30277 0.258845 3.18161 0.383789 3.14122 0.550381C3.14122 0.675325 3.18161 0.800269 3.26238 0.925213L5.24138 2.96597C5.68565 3.42409 5.68565 4.21541 5.24138 4.67353C4.79712 5.13166 4.02975 5.13166 3.58548 4.67353L1.60648 2.63278C1.48532 2.54949 1.36416 2.50784 1.20261 2.54949C1.08144 2.54949 0.960279 2.67443 0.919891 2.79937C0.435238 4.25705 0.798728 5.88133 1.84881 6.96417C2.57579 7.75549 3.62587 8.17197 4.67595 8.17197C4.99906 8.17197 5.36255 8.13032 5.68565 8.04702L12.3092 14.8773C11.9458 16.2933 12.3496 17.7927 13.3189 18.8339C14.0863 19.6252 15.0556 20 16.1057 20C16.55 20 16.9538 19.9167 17.3981 19.7918C17.5193 19.7501 17.6404 19.6252 17.6808 19.5002C17.7212 19.3753 17.6808 19.2087 17.5597 19.1254L15.5807 17.0846C15.3787 16.8764 15.2172 16.5432 15.2172 16.21C15.2172 15.8768 15.3383 15.5853 15.5807 15.3354C15.823 15.0855 16.1057 14.9606 16.4288 14.9606C16.7519 14.9606 17.0346 15.0855 17.2769 15.3354L19.2559 17.3762C19.3771 17.4595 19.4983 17.5011 19.6194 17.5011C19.7406 17.4595 19.8618 17.3762 19.9021 17.2512C20.0233 16.8348 20.1041 16.3766 20.1041 15.9185C20.1041 14.8356 19.7002 13.7944 18.9328 13.0448Z" fill="white"/>
</svg>
