<svg width="21" height="20" viewBox="0 0 21 20" fill="none" xmlns="http://www.w3.org/2000/svg">
<path fill-rule="evenodd" clip-rule="evenodd" d="M18.375 0H2.04167C0.91875 0 0.0102083 0.9 0.0102083 2L0 20L4.08333 15H18.375C19.4979 15 20.4167 14.1 20.4167 13V2C20.4167 0.9 19.4979 0 18.375 0ZM11.2292 11H5.10425C4.54279 11 4.08341 10.55 4.08341 10C4.08341 9.45 4.54279 9 5.10425 9H11.2292C11.7907 9 12.2501 9.45 12.2501 10C12.2501 10.55 11.7907 11 11.2292 11ZM15.3126 6H5.10425C4.54279 6 4.08341 5.55 4.08341 5C4.08341 4.45 4.54279 4 5.10425 4H15.3126C15.874 4 16.3334 4.45 16.3334 5C16.3334 5.55 15.874 6 15.3126 6Z" fill="white"/>
</svg>
